<?xml version="1.0" standalone="no"?>
<!DOCTYPE svg PUBLIC "-//W3C//DTD SVG 20010904//EN"
 "http://www.w3.org/TR/2001/REC-SVG-20010904/DTD/svg10.dtd">
<svg version="1.0" xmlns="http://www.w3.org/2000/svg"
 width="261.000000pt" height="261.000000pt" viewBox="0 0 261.000000 261.000000"
 preserveAspectRatio="xMidYMid meet">
<metadata>
Created by potrace 1.11, written by Peter Selinger 2001-2013
</metadata>
<g transform="translate(0.000000,261.000000) scale(0.100000,-0.100000)"
fill="#000000" stroke="none">
<path d="M368 2581 c-159 -51 -290 -182 -338 -339 -19 -62 -20 -95 -20 -937 0
-842 1 -875 20 -937 48 -158 181 -290 339 -338 61 -19 97 -20 936 -20 842 0
875 1 937 20 158 48 290 181 338 339 19 61 20 97 20 936 0 839 -1 875 -20 936
-48 158 -180 291 -338 339 -62 19 -94 20 -941 19 -819 0 -880 -1 -933 -18z
m678 -522 c55 -50 54 -41 54 -678 l0 -590 326 -3 326 -3 34 -37 c28 -31 34
-46 34 -80 0 -59 -29 -104 -77 -118 -26 -8 -164 -10 -435 -8 -383 3 -398 4
-425 24 -65 48 -63 20 -63 748 0 636 1 661 20 700 27 58 62 78 128 73 38 -3
59 -10 78 -28z"/>
</g>
</svg>
